<svg xmlns="http://www.w3.org/2000/svg" viewBox="0 0 100 100" width="32" height="32">
  <!-- Fondo circular -->
  <circle cx="50" cy="50" r="48" fill="#ffffff" />
  
  <!-- Arcos del arcoíris -->
  <path d="M 50,90 A 40,40 0 0 1 10,50" stroke="#ff0000" stroke-width="6" fill="none" />
  <path d="M 50,90 A 35,35 0 0 1 15,50" stroke="#ff7f00" stroke-width="6" fill="none" />
  <path d="M 50,90 A 30,30 0 0 1 20,50" stroke="#ffff00" stroke-width="6" fill="none" />
  <path d="M 50,90 A 25,25 0 0 1 25,50" stroke="#00ff00" stroke-width="6" fill="none" />
  <path d="M 50,90 A 20,20 0 0 1 30,50" stroke="#0000ff" stroke-width="6" fill="none" />
  <path d="M 50,90 A 15,15 0 0 1 35,50" stroke="#4b0082" stroke-width="6" fill="none" />
  <path d="M 50,90 A 10,10 0 0 1 40,50" stroke="#9400d3" stroke-width="6" fill="none" />
</svg> 